<?xml version="1.0" encoding="UTF-8" standalone="no"?>
<!-- Created with Inkscape (http://www.inkscape.org/) -->

<svg
   width="48"
   height="48"
   viewBox="0 0 48 48"
   version="1.1"
   id="svg1"
   inkscape:version="1.3.2 (091e20e, 2023-11-25, custom)"
   sodipodi:docname="whitemask0.svg"
   xmlns:inkscape="http://www.inkscape.org/namespaces/inkscape"
   xmlns:sodipodi="http://sodipodi.sourceforge.net/DTD/sodipodi-0.dtd"
   xmlns="http://www.w3.org/2000/svg"
   xmlns:svg="http://www.w3.org/2000/svg">
  <sodipodi:namedview
     id="namedview1"
     pagecolor="#ffffff"
     bordercolor="#111111"
     borderopacity="1"
     inkscape:showpageshadow="0"
     inkscape:pageopacity="0"
     inkscape:pagecheckerboard="1"
     inkscape:deskcolor="#d1d1d1"
     inkscape:document-units="px"
     inkscape:zoom="8.1979168"
     inkscape:cx="28.787801"
     inkscape:cy="7.013977"
     inkscape:window-width="1920"
     inkscape:window-height="1001"
     inkscape:window-x="-9"
     inkscape:window-y="-9"
     inkscape:window-maximized="1"
     inkscape:current-layer="layer1" />
  <defs
     id="defs1">
    <inkscape:path-effect
       effect="fillet_chamfer"
       id="path-effect3"
       is_visible="true"
       lpeversion="1"
       nodesatellites_param="F,0,0,1,0,1,0,1 @ F,0,0,1,0,1,0,1 @ F,0,0,1,0,1,0,1 @ F,0,0,1,0,1,0,1"
       radius="1"
       unit="px"
       method="auto"
       mode="F"
       chamfer_steps="1"
       flexible="false"
       use_knot_distance="true"
       apply_no_radius="true"
       apply_with_radius="true"
       only_selected="false"
       hide_knots="false" />
    <inkscape:path-effect
       effect="fillet_chamfer"
       id="path-effect3-7"
       is_visible="true"
       lpeversion="1"
       nodesatellites_param="F,0,0,1,0,1,0,1 @ F,0,0,1,0,1,0,1 @ F,0,0,1,0,1,0,1 @ F,0,0,1,0,1,0,1"
       radius="1"
       unit="px"
       method="auto"
       mode="F"
       chamfer_steps="1"
       flexible="false"
       use_knot_distance="true"
       apply_no_radius="true"
       apply_with_radius="true"
       only_selected="false"
       hide_knots="false" />
    <inkscape:path-effect
       effect="fillet_chamfer"
       id="path-effect3-4"
       is_visible="true"
       lpeversion="1"
       nodesatellites_param="F,0,0,1,0,1,0,1 @ F,0,0,1,0,1,0,1 @ F,0,0,1,0,1,0,1 @ F,0,0,1,0,1,0,1"
       radius="1"
       unit="px"
       method="auto"
       mode="F"
       chamfer_steps="1"
       flexible="false"
       use_knot_distance="true"
       apply_no_radius="true"
       apply_with_radius="true"
       only_selected="false"
       hide_knots="false" />
    <inkscape:path-effect
       effect="fillet_chamfer"
       id="path-effect3-7-3"
       is_visible="true"
       lpeversion="1"
       nodesatellites_param="F,0,0,1,0,1,0,1 @ F,0,0,1,0,1,0,1 @ F,0,0,1,0,1,0,1 @ F,0,0,1,0,1,0,1"
       radius="1"
       unit="px"
       method="auto"
       mode="F"
       chamfer_steps="1"
       flexible="false"
       use_knot_distance="true"
       apply_no_radius="true"
       apply_with_radius="true"
       only_selected="false"
       hide_knots="false" />
    <inkscape:path-effect
       effect="fillet_chamfer"
       id="path-effect3-2"
       is_visible="true"
       lpeversion="1"
       nodesatellites_param="F,0,0,1,0,1,0,1 @ F,0,0,1,0,1,0,1 @ F,0,0,1,0,1,0,1 @ F,0,0,1,0,1,0,1"
       radius="1"
       unit="px"
       method="auto"
       mode="F"
       chamfer_steps="1"
       flexible="false"
       use_knot_distance="true"
       apply_no_radius="true"
       apply_with_radius="true"
       only_selected="false"
       hide_knots="false" />
    <inkscape:path-effect
       effect="fillet_chamfer"
       id="path-effect3-4-3"
       is_visible="true"
       lpeversion="1"
       nodesatellites_param="F,0,0,1,0,1,0,1 @ F,0,0,1,0,1,0,1 @ F,0,0,1,0,1,0,1 @ F,0,0,1,0,1,0,1"
       radius="1"
       unit="px"
       method="auto"
       mode="F"
       chamfer_steps="1"
       flexible="false"
       use_knot_distance="true"
       apply_no_radius="true"
       apply_with_radius="true"
       only_selected="false"
       hide_knots="false" />
  </defs>
  <g
     inkscape:label="Layer 1"
     inkscape:groupmode="layer"
     id="layer1">
    <path
       id="path1"
       style="fill:#000000;fill-opacity:0.69981581;stroke-width:1.00157"
       inkscape:label="path1"
       d="M 24.03125 6.3964844 A 18 18 0 0 0 6.03125 24.396484 A 18 18 0 0 0 24.03125 42.396484 A 18 18 0 0 0 42.03125 24.396484 A 18 18 0 0 0 24.03125 6.3964844 z M 22.167969 10.599609 L 22.167969 15.074219 A 1 1 0 0 0 23.167969 16.074219 L 25.167969 16.074219 A 1 1 0 0 0 26.167969 15.074219 L 26.167969 10.628906 A 14 14 0 0 1 30.216797 11.916016 A 1 1 0 0 0 30.197266 12.083984 L 30.197266 16.583984 A 1 1 0 0 0 31.197266 17.583984 L 33.197266 17.583984 A 1 1 0 0 0 34.197266 16.583984 L 34.197266 14.871094 A 14 14 0 0 1 37.835938 22.339844 L 10.166016 22.339844 A 14 14 0 0 1 14.066406 14.595703 L 14.066406 16.669922 A 1 1 0 0 0 15.066406 17.669922 L 17.066406 17.669922 A 1 1 0 0 0 18.066406 16.669922 L 18.066406 12.169922 A 1 1 0 0 0 18.007812 11.832031 A 14 14 0 0 1 22.167969 10.599609 z M 10.148438 26.339844 L 37.851562 26.339844 A 14 14 0 0 1 34.082031 34.144531 L 34.082031 32.171875 A 1 1 0 0 0 33.082031 31.171875 L 31.082031 31.171875 A 1 1 0 0 0 30.082031 32.171875 L 30.082031 36.671875 A 1 1 0 0 0 30.148438 37.017578 A 14 14 0 0 1 26.091797 38.292969 A 1 1 0 0 0 26.138672 38.009766 L 26.138672 33.509766 A 1 1 0 0 0 25.138672 32.509766 L 23.138672 32.509766 A 1 1 0 0 0 22.138672 33.509766 L 22.138672 38.009766 A 1 1 0 0 0 22.191406 38.314453 A 14 14 0 0 1 17.904297 37.039062 A 1 1 0 0 0 17.951172 36.757812 L 17.951172 32.257812 A 1 1 0 0 0 16.951172 31.257812 L 14.951172 31.257812 A 1 1 0 0 0 13.951172 32.257812 L 13.951172 34.183594 A 14 14 0 0 1 10.148438 26.339844 z " />
  </g>
</svg>
