<?xml version="1.0" encoding="UTF-8" standalone="no"?>
<!-- Created with Inkscape (http://www.inkscape.org/) -->

<svg
   width="48"
   height="48"
   viewBox="0 0 48 48"
   version="1.1"
   id="svg1"
   inkscape:version="1.3.2 (091e20e, 2023-11-25, custom)"
   sodipodi:docname="whitemask0.svg"
   xmlns:inkscape="http://www.inkscape.org/namespaces/inkscape"
   xmlns:sodipodi="http://sodipodi.sourceforge.net/DTD/sodipodi-0.dtd"
   xmlns="http://www.w3.org/2000/svg"
   xmlns:svg="http://www.w3.org/2000/svg">
  <sodipodi:namedview
     id="namedview1"
     pagecolor="#ffffff"
     bordercolor="#111111"
     borderopacity="1"
     inkscape:showpageshadow="0"
     inkscape:pageopacity="0"
     inkscape:pagecheckerboard="1"
     inkscape:deskcolor="#d1d1d1"
     inkscape:document-units="px"
     inkscape:zoom="8.1979168"
     inkscape:cx="28.787801"
     inkscape:cy="26.287166"
     inkscape:window-width="1920"
     inkscape:window-height="1001"
     inkscape:window-x="-9"
     inkscape:window-y="-9"
     inkscape:window-maximized="1"
     inkscape:current-layer="layer1" />
  <defs
     id="defs1">
    <inkscape:path-effect
       effect="fillet_chamfer"
       id="path-effect3"
       is_visible="true"
       lpeversion="1"
       nodesatellites_param="F,0,0,1,0,1,0,1 @ F,0,0,1,0,1,0,1 @ F,0,0,1,0,1,0,1 @ F,0,0,1,0,1,0,1"
       radius="1"
       unit="px"
       method="auto"
       mode="F"
       chamfer_steps="1"
       flexible="false"
       use_knot_distance="true"
       apply_no_radius="true"
       apply_with_radius="true"
       only_selected="false"
       hide_knots="false" />
    <inkscape:path-effect
       effect="fillet_chamfer"
       id="path-effect3-7"
       is_visible="true"
       lpeversion="1"
       nodesatellites_param="F,0,0,1,0,1,0,1 @ F,0,0,1,0,1,0,1 @ F,0,0,1,0,1,0,1 @ F,0,0,1,0,1,0,1"
       radius="1"
       unit="px"
       method="auto"
       mode="F"
       chamfer_steps="1"
       flexible="false"
       use_knot_distance="true"
       apply_no_radius="true"
       apply_with_radius="true"
       only_selected="false"
       hide_knots="false" />
    <inkscape:path-effect
       effect="fillet_chamfer"
       id="path-effect3-4"
       is_visible="true"
       lpeversion="1"
       nodesatellites_param="F,0,0,1,0,1,0,1 @ F,0,0,1,0,1,0,1 @ F,0,0,1,0,1,0,1 @ F,0,0,1,0,1,0,1"
       radius="1"
       unit="px"
       method="auto"
       mode="F"
       chamfer_steps="1"
       flexible="false"
       use_knot_distance="true"
       apply_no_radius="true"
       apply_with_radius="true"
       only_selected="false"
       hide_knots="false" />
    <inkscape:path-effect
       effect="fillet_chamfer"
       id="path-effect3-7-3"
       is_visible="true"
       lpeversion="1"
       nodesatellites_param="F,0,0,1,0,1,0,1 @ F,0,0,1,0,1,0,1 @ F,0,0,1,0,1,0,1 @ F,0,0,1,0,1,0,1"
       radius="1"
       unit="px"
       method="auto"
       mode="F"
       chamfer_steps="1"
       flexible="false"
       use_knot_distance="true"
       apply_no_radius="true"
       apply_with_radius="true"
       only_selected="false"
       hide_knots="false" />
    <inkscape:path-effect
       effect="fillet_chamfer"
       id="path-effect3-2"
       is_visible="true"
       lpeversion="1"
       nodesatellites_param="F,0,0,1,0,1,0,1 @ F,0,0,1,0,1,0,1 @ F,0,0,1,0,1,0,1 @ F,0,0,1,0,1,0,1"
       radius="1"
       unit="px"
       method="auto"
       mode="F"
       chamfer_steps="1"
       flexible="false"
       use_knot_distance="true"
       apply_no_radius="true"
       apply_with_radius="true"
       only_selected="false"
       hide_knots="false" />
    <inkscape:path-effect
       effect="fillet_chamfer"
       id="path-effect3-4-3"
       is_visible="true"
       lpeversion="1"
       nodesatellites_param="F,0,0,1,0,1,0,1 @ F,0,0,1,0,1,0,1 @ F,0,0,1,0,1,0,1 @ F,0,0,1,0,1,0,1"
       radius="1"
       unit="px"
       method="auto"
       mode="F"
       chamfer_steps="1"
       flexible="false"
       use_knot_distance="true"
       apply_no_radius="true"
       apply_with_radius="true"
       only_selected="false"
       hide_knots="false" />
  </defs>
  <g
     inkscape:label="Layer 1"
     inkscape:groupmode="layer"
     id="layer1">
    <path
       id="path1"
       style="fill:#000000;fill-opacity:0.850829;stroke-width:0.667713"
       inkscape:label="path1"
       d="M 24,12 A 12,12 0 0 0 12,24 12,12 0 0 0 24,36 12,12 0 0 0 36,24 12,12 0 0 0 24,12 Z m -1.242188,2.802083 v 2.983073 a 0.66666665,0.66666667 0 0 0 0.666667,0.666667 h 1.333333 a 0.66666665,0.66666667 0 0 0 0.666668,-0.666667 v -2.963541 a 9.3333335,9.3333335 0 0 1 2.699217,0.858072 0.66666665,0.66666667 0 0 0 -0.01303,0.111978 v 3.000001 a 0.66666665,0.66666667 0 0 0 0.666667,0.666666 h 1.333333 a 0.66666665,0.66666667 0 0 0 0.666667,-0.666666 V 17.64974 a 9.3333335,9.3333335 0 0 1 2.425782,4.979167 h -18.44661 a 9.3333335,9.3333335 0 0 1 2.600261,-5.162761 v 1.382811 a 0.66666665,0.66666667 0 0 0 0.666666,0.666668 h 1.333333 a 0.66666665,0.66666667 0 0 0 0.666668,-0.666668 v -2.999999 a 0.66666665,0.66666667 0 0 0 -0.03905,-0.22526 9.3333335,9.3333335 0 0 1 2.773437,-0.821615 z m -8.013019,10.493489 h 18.468748 a 9.3333335,9.3333335 0 0 1 -2.51302,5.203126 v -1.315106 a 0.66666665,0.66666667 0 0 0 -0.666668,-0.666664 h -1.333332 a 0.66666665,0.66666667 0 0 0 -0.666667,0.666664 v 3.000001 a 0.66666665,0.66666667 0 0 0 0.04428,0.230469 9.3333335,9.3333335 0 0 1 -2.704427,0.850261 0.66666665,0.66666667 0 0 0 0.03126,-0.188802 V 30.07552 a 0.66666665,0.66666667 0 0 0 -0.666671,-0.666666 h -1.333333 a 0.66666665,0.66666667 0 0 0 -0.666668,0.666666 v 3.000001 a 0.66666665,0.66666667 0 0 0 0.03516,0.203124 9.3333335,9.3333335 0 0 1 -2.858074,-0.850261 0.66666665,0.66666667 0 0 0 0.03126,-0.187499 v -3 A 0.66666665,0.66666667 0 0 0 19.27997,28.574217 h -1.333333 a 0.66666665,0.66666667 0 0 0 -0.666666,0.666668 v 1.283854 a 9.3333335,9.3333335 0 0 1 -2.535153,-5.229167 z" />
  </g>
</svg>
